<?xml version="1.0" encoding="utf-8"?>
<!-- Generator: Adobe Illustrator 27.0.1, SVG Export Plug-In . SVG Version: 6.00 Build 0)  -->
<svg version="1.1" id="layer" xmlns="http://www.w3.org/2000/svg" xmlns:xlink="http://www.w3.org/1999/xlink" x="0px" y="0px"
	 viewBox="0 0 133.4 133.3" style="enable-background:new 0 0 133.4 133.3;" xml:space="preserve">
<style type="text/css">
	.st0{fill:#00A6B4;}
</style>
<path class="st0" d="M117.1,20.6c0.4,1.4,1.7,6.5,3,11.3l0,0L130.3,70c1.3,4.8,2.7,9.9,3,11.3l0,0c0.5,2.1-0.1,4.3-1.6,5.8l0,0
	l-8.3,8.3l0,0l-27.8,27.8c-3.5,3.7-7.1,7.4-8.3,8.3l0,0c-1.6,1.4-3.8,2-5.8,1.6l0,0l-11.3-3l0,0l-38.1-10.2l-11.3-3l0,0
	c-1-0.3-1.9-0.8-2.7-1.6l0,0c-0.8-0.7-1.3-1.7-1.6-2.7l0,0c-0.4-1.4-1.7-6.5-3-11.3l0,0L3.3,63.2l-3-11.3l0,0l1.5-0.5L3.3,51
	c0.4,1.4,1.7,6.5,3,11.3l0,0l10.2,38.2c1.3,4.8,2.7,9.9,3,11.3l0,0c0.2,0.5,0.5,0.9,0.8,1.3l0,0c0.4,0.4,0.8,0.7,1.3,0.8l0,0l11.3,3
	l0,0L71,127.1l11.3,3l0,0c1,0.2,2.1-0.1,2.9-0.8l0,0l8.3-8.3l0,0l27.9-27.9l8.3-8.3l0,0c0.7-0.8,0.9-1.9,0.8-2.9l0,0
	c-0.4-1.4-1.7-6.5-3-11.3l0,0l-10.3-37.9c-1.3-4.8-2.7-9.9-3-11.3l0,0c-0.2-0.5-0.5-0.9-0.8-1.3l0,0c-0.4-0.4-0.8-0.7-1.3-0.8l0,0
	l-11.3-3.1l0,0L62.8,6L51.4,3l0,0c-1-0.2-2.1,0.1-2.9,0.8l0,0l-8.3,8.3l0,0L12.3,40L4,48.3l0,0c-0.7,0.8-1,1.9-0.8,2.9l0,0l-1.5,0.3
	l-1.5,0.4c-0.5-2.1,0.1-4.3,1.6-5.8l0,0l8.3-8.3l0,0L38,10l8.3-8.3l0,0c1.6-1.5,3.8-2,5.8-1.6l0,0l11.3,3l0,0l38.1,10.2l11.3,3l0,0
	c1,0.3,1.9,0.9,2.7,1.6l0,0C116.3,18.7,116.8,19.6,117.1,20.6z"/>
<path class="st0" d="M69.3,10.5l8.3,4.8l0,0l28.2,16.3l8.4,4.8l0,0c1.5,0.9,2.4,2.5,2.5,4.3l0,0v9.6l0,0v42.2l0,0
	c-0.1,1.8-1,3.4-2.5,4.3l0,0l-8.3,4.8l0,0l-28.3,16.3l-8.3,4.8l0,0c-0.8,0.4-1.6,0.6-2.5,0.6l0,0c-0.9,0-1.7-0.2-2.5-0.6l0,0
	l-8.3-4.8l0,0l-28.3-16.3l-8.3-4.8l0,0l0.6-1.1l0.6-1.1l8.3,4.8l0,0l28.2,16.3l8.4,4.8l0,0c0.4,0.2,0.8,0.3,1.2,0.3l0,0
	c0.4,0,0.9-0.1,1.3-0.3l0,0l8.3-4.8l0,0l28.2-16.3l8.3-4.8l0,0c0.7-0.5,1.2-1.3,1.4-2.2l0,0v-9.6l0,0V40.6l0,0
	c-0.1-0.9-0.6-1.7-1.3-2.1l0,0l-8.3-4.8l0,0L76.4,17.4l-8.3-4.8l0,0c-0.4-0.2-0.8-0.3-1.3-0.3l0,0c-0.4,0-0.9,0.1-1.2,0.3l0,0
	l-8.4,4.8l0,0L29,33.7l-8.3,4.8l0,0c-0.7,0.5-1.2,1.3-1.3,2.2l0,0v9.6l0,0v42.2l0,0c0.1,0.9,0.5,1.6,1.3,2.2l0,0l-0.6,1.1l-0.6,1.1
	C18,96,17.1,94.4,17,92.6l0,0c0-1.2,0-5.5,0-9.6l0,0V40.8l0,0c0.1-1.8,1-3.4,2.5-4.3l0,0l8.3-4.8l0,0l28.3-16.3l8.3-4.8l0,0
	c0.8-0.4,1.6-0.6,2.5-0.6l0,0C67.7,9.9,68.6,10.1,69.3,10.5z"/>
<path class="st0" d="M33.1,29.4l8.3-2.2l0,0l28-7.5l8.3-2.2l0,0c1.5-0.3,3.1,0.1,4.3,1.2l0,0l6.1,6.1l0,0l20.5,20.5l6.1,6.1l0,0
	c1.1,1.1,1.5,2.8,1.1,4.3l0,0c-0.3,1-1.3,4.8-2.2,8.3l0,0l-7.5,28c-1,3.5-2,7.4-2.2,8.3l0,0c-0.2,0.7-0.6,1.4-1.2,2l0,0
	c-0.5,0.6-1.2,1-2,1.2l0,0l-8.3,2.2l0,0l-28,7.5l-8.3,2.2l0,0l-0.3-1l-0.3-1.1l8.3-2.2l0,0l28-7.5l8.3-2.2l0,0
	c0.4-0.1,0.7-0.3,1-0.6l0,0c0.3-0.3,0.5-0.6,0.6-1l0,0l2.2-8.3l0,0l7.5-28c1-3.5,2-7.3,2.2-8.3l0,0c0.1-0.8-0.1-1.5-0.6-2.1l0,0
	l-6-6.1l0,0L86.5,26.5l-6.1-6.1l0,0c-0.6-0.5-1.4-0.7-2.1-0.6l0,0L70,22l0,0l-28,7.6l-8.3,2.2l0,0c-0.4,0.1-0.7,0.3-1,0.6l0,0
	c-0.3,0.3-0.5,0.6-0.6,1l0,0c-0.3,1-1.3,4.8-2.2,8.3l0,0l-7.5,27.9c-0.9,3.5-1.9,7.3-2.2,8.3l0,0c-0.1,0.8,0.1,1.5,0.6,2.1l0,0
	l6.1,6.1l0,0l20.5,20.5l6.1,6.1l0,0c0.6,0.5,1.4,0.7,2.1,0.6l0,0l0.3,1.1l0.3,1.1c-1.5,0.3-3.1-0.1-4.3-1.2l0,0l-6.1-6.1l0,0
	L25.2,87.4l-6.1-6.1l0,0c-1.1-1.1-1.5-2.7-1.2-4.3l0,0c0.3-1,1.3-4.8,2.2-8.3l0,0l7.5-28l2.2-8.3l0,0c0.2-0.7,0.6-1.4,1.2-2l0,0
	C31.7,30,32.4,29.6,33.1,29.4z"/>
<path class="st0" d="M25.7,107.8C3,85.1,3,48.3,25.7,25.5s59.5-22.7,82.3,0s22.7,59.5,0,82.3l0,0C85.3,130.5,48.5,130.5,25.7,107.8
	L25.7,107.8z M106.1,105.9c21.6-21.7,21.5-56.8-0.2-78.3C84.2,6,49.1,6.1,27.6,27.8C6.1,49.4,6.1,84.4,27.7,106
	C49.3,127.7,84.4,127.6,106.1,105.9C106.1,106,106.1,106,106.1,105.9L106.1,105.9z"/>
<path class="st0" d="M68.7,24.5l6.2,3.6l0,0l20.9,12l6.2,3.6l0,0c1.1,0.7,1.8,1.9,1.8,3.2l0,0V54l0,0v31.3l0,0
	c-0.1,1.3-0.7,2.5-1.8,3.2l0,0L95.8,92l0,0l-20.9,12.1l-6.2,3.6l0,0c-0.6,0.3-1.2,0.5-1.8,0.5l0,0c-0.6,0-1.3-0.2-1.8-0.5l0,0
	l-6.2-3.6l0,0L38,92l-6.2-3.6l0,0l0.5-0.8l0.5-0.8l6.1,3.6l0,0l20.9,12.1l6.2,3.6l0,0c0.3,0.2,0.6,0.2,0.9,0.2l0,0
	c0.3,0,0.6,0,0.9-0.2l0,0l6.2-3.6l0,0l20.9-12.1l6.2-3.6l0,0c0.5-0.4,0.9-0.9,0.9-1.6l0,0v-7.1l0,0V46.8l0,0
	c-0.1-0.6-0.4-1.2-0.9-1.6l0,0l-6.2-3.6l0,0l-20.8-12L67.9,26l0,0c-0.3-0.1-0.6-0.2-0.9-0.2l0,0c-0.3,0-0.6,0.1-0.9,0.2l0,0
	l-6.2,3.6l0,0L39,41.6l-6.2,3.6l0,0c-0.5,0.4-0.9,1-0.9,1.6l0,0v7.1l0,0v31.3l0,0c0.1,0.6,0.4,1.2,0.9,1.6l0,0l-0.5,0.8l-0.5,0.8
	c-1.1-0.7-1.8-1.9-1.8-3.2l0,0V78l0,0V46.7l0,0c0-1.3,0.7-2.5,1.8-3.2l0,0l6.2-3.6l0,0l20.9-12l6.2-3.6l0,0c0.6-0.3,1.2-0.5,1.8-0.5
	l0,0C67.5,24.1,68.1,24.2,68.7,24.5L68.7,24.5z"/>
<path class="st0" d="M36.4,96.5c-16.8-16.8-16.8-44.1,0-60.9s44.1-16.8,60.9,0s16.8,44.1,0,60.9C80.5,113.4,53.2,113.4,36.4,96.5z
	 M95.9,95.2c16-16,15.9-42-0.1-58s-42-15.9-58,0.1c-15.9,16-15.9,41.9,0,57.9C53.8,111.2,79.8,111.3,95.9,95.2
	C95.8,95.2,95.9,95.2,95.9,95.2z"/>
</svg>
